<svg data-v-423bf9ae="" xmlns="http://www.w3.org/2000/svg" viewBox="0 0 94.13172811488862 60" class="font"><!----><!----><!----><g data-v-423bf9ae="" id="f87a4991-b968-448a-9ff4-1e3b484265b2" fill="black" transform="matrix(5.988023678532963,0,0,5.988023678532963,-7.544908557045581,-16.107784514728294)"><path d="M1.68 2.80ZM1.26 2.80L1.26 12.60L1.68 12.60L1.68 8.48L3.23 8.48L6.36 12.60L6.90 12.60L3.71 8.47C4.61 8.41 5.32 8.15 5.86 7.67C6.40 7.20 6.66 6.52 6.66 5.64C6.66 4.71 6.36 4.00 5.75 3.52C5.15 3.04 4.35 2.80 3.36 2.80ZM1.68 3.21L3.36 3.21C4.23 3.21 4.92 3.41 5.45 3.83C5.97 4.24 6.23 4.85 6.23 5.64C6.23 6.44 5.97 7.04 5.45 7.45C4.92 7.87 4.23 8.08 3.36 8.08L1.68 8.08ZM16.98 7.63L12.92 7.63L12.92 8.11L16.51 8.11C16.42 9.32 16.03 10.32 15.32 11.09C14.61 11.87 13.67 12.26 12.50 12.26C11.21 12.26 10.17 11.82 9.38 10.94C8.59 10.06 8.19 8.98 8.19 7.70C8.19 6.40 8.59 5.32 9.40 4.45C10.21 3.57 11.24 3.14 12.50 3.14C13.25 3.14 13.94 3.31 14.58 3.65C15.22 4.00 15.73 4.47 16.11 5.05L16.51 4.75C16.07 4.11 15.51 3.61 14.83 3.24C14.14 2.87 13.37 2.69 12.50 2.69C11.15 2.69 10.02 3.17 9.11 4.13C8.20 5.09 7.74 6.28 7.74 7.70C7.74 9.12 8.20 10.31 9.11 11.27C10.02 12.23 11.15 12.71 12.50 12.71C13.87 12.71 14.96 12.22 15.77 11.23C16.58 10.25 16.98 9.05 16.98 7.63Z"></path></g><!----><!----></svg>