<svg data-v-fde0c5aa="" xmlns="http://www.w3.org/2000/svg" viewBox="0 0 300 300" class="font"><!----><defs data-v-fde0c5aa=""><!----></defs><rect data-v-fde0c5aa="" fill="transparent" x="0" y="0" width="300px" height="300px" class="logo-background-square"></rect><defs data-v-fde0c5aa=""><linearGradient data-v-fde0c5aa="" gradientTransform="rotate(25)" id="74015c47-1209-46a2-8110-68abb922bf27" x1="0%" y1="0%" x2="100%" y2="0%"><stop data-v-fde0c5aa="" offset="0%" stop-color="#51A4FB" stop-opacity="1"></stop><stop data-v-fde0c5aa="" offset="100%" stop-color="#51A4FB" stop-opacity="1"></stop></linearGradient></defs><g data-v-fde0c5aa="" id="358579fc-f9f4-41b8-af44-0b8c4f90cfef" fill="url(#74015c47-1209-46a2-8110-68abb922bf27)" transform="matrix(13.414634458370545,0,0,13.414634458370545,18.93902479588171,34.16463157990228)"><path d="M4.53 9.56L2.57 9.56L2.57 13.64L1.57 13.64L1.57 3.63L4.17 3.63L4.17 3.63Q4.83 3.63 5.41 3.83L5.41 3.83L5.41 3.83Q5.98 4.03 6.41 4.39L6.41 4.39L6.41 4.39Q6.83 4.74 7.08 5.23L7.08 5.23L7.08 5.23Q7.32 5.72 7.32 6.30L7.32 6.30L7.32 6.30Q7.32 6.81 7.14 7.25L7.14 7.25L7.14 7.25Q6.97 7.70 6.69 8.06L6.69 8.06L6.69 8.06Q6.41 8.43 6.07 8.72L6.07 8.72L6.07 8.72Q5.73 9.00 5.41 9.20L5.41 9.20L8.26 13.64L7.03 13.64L4.53 9.56ZM2.57 4.55L2.57 8.64L4.96 8.64L4.96 8.64Q5.28 8.47 5.52 8.22L5.52 8.22L5.52 8.22Q5.77 7.97 5.94 7.68L5.94 7.68L5.94 7.68Q6.10 7.39 6.19 7.07L6.19 7.07L6.19 7.07Q6.28 6.75 6.28 6.44L6.28 6.44L6.28 6.44Q6.28 6.04 6.13 5.69L6.13 5.69L6.13 5.69Q5.99 5.35 5.69 5.09L5.69 5.09L5.69 5.09Q5.39 4.83 4.95 4.69L4.95 4.69L4.95 4.69Q4.50 4.55 3.89 4.55L3.89 4.55L2.57 4.55ZM17.97 9.06L17.97 13.15L17.97 13.15Q17.51 13.33 17.06 13.45L17.06 13.45L17.06 13.45Q16.61 13.57 16.20 13.64L16.20 13.64L16.20 13.64Q15.80 13.72 15.44 13.75L15.44 13.75L15.44 13.75Q15.07 13.78 14.78 13.78L14.78 13.78L14.78 13.78Q13.69 13.78 12.77 13.42L12.77 13.42L12.77 13.42Q11.85 13.06 11.17 12.40L11.17 12.40L11.17 12.40Q10.50 11.75 10.12 10.83L10.12 10.83L10.12 10.83Q9.75 9.92 9.75 8.81L9.75 8.81L9.75 8.81Q9.75 8.03 9.94 7.32L9.94 7.32L9.94 7.32Q10.14 6.62 10.49 6.03L10.49 6.03L10.49 6.03Q10.84 5.44 11.34 4.97L11.34 4.97L11.34 4.97Q11.83 4.50 12.43 4.17L12.43 4.17L12.43 4.17Q13.04 3.84 13.72 3.67L13.72 3.67L13.72 3.67Q14.41 3.49 15.15 3.49L15.15 3.49L15.15 3.49Q15.40 3.49 15.72 3.52L15.72 3.52L15.72 3.52Q16.03 3.54 16.37 3.60L16.37 3.60L16.37 3.60Q16.71 3.65 17.06 3.74L17.06 3.74L17.06 3.74Q17.42 3.83 17.76 3.96L17.76 3.96L17.58 4.91L17.45 4.98L17.45 4.98Q17.05 4.81 16.68 4.69L16.68 4.69L16.68 4.69Q16.32 4.58 16.00 4.52L16.00 4.52L16.00 4.52Q15.67 4.46 15.40 4.43L15.40 4.43L15.40 4.43Q15.13 4.41 14.92 4.41L14.92 4.41L14.92 4.41Q13.99 4.41 13.22 4.75L13.22 4.75L13.22 4.75Q12.46 5.09 11.92 5.67L11.92 5.67L11.92 5.67Q11.38 6.25 11.09 7.02L11.09 7.02L11.09 7.02Q10.79 7.79 10.79 8.66L10.79 8.66L10.79 8.66Q10.79 9.49 11.07 10.25L11.07 10.25L11.07 10.25Q11.34 11.01 11.87 11.59L11.87 11.59L11.87 11.59Q12.39 12.17 13.17 12.52L13.17 12.52L13.17 12.52Q13.95 12.87 14.95 12.87L14.95 12.87L14.95 12.87Q15.42 12.87 15.95 12.78L15.95 12.78L15.95 12.78Q16.47 12.69 17.08 12.51L17.08 12.51L17.08 9.06L17.97 9.06Z"></path></g><!----><!----></svg>