<svg data-v-423bf9ae="" xmlns="http://www.w3.org/2000/svg" viewBox="0 0 202 107" class="iconLeft"><!----><!----><!----><g data-v-423bf9ae="" id="c454b140-21d7-497e-b465-6c6ea18fe7ff" fill="white" transform="matrix(5.988023678532963,0,0,5.988023678532963,94.71147717648691,7.044345612224831)"><path d="M3.40 2.80ZM5.01 2.80L3.29 2.80L2.98 2.80L1.26 12.60L1.68 12.60L2.41 8.48L3.99 8.48L6.41 12.60L6.90 12.60L4.44 8.47C5.40 8.40 6.20 8.06 6.84 7.47C7.48 6.88 7.80 6.13 7.80 5.22C7.80 3.61 6.87 2.80 5.01 2.80ZM3.33 3.21L5.01 3.21C5.81 3.21 6.40 3.36 6.78 3.67C7.17 3.99 7.36 4.50 7.36 5.22C7.36 6.09 7.05 6.78 6.43 7.30C5.81 7.82 5.03 8.08 4.09 8.08L2.48 8.08ZM17.86 7.63L13.80 7.63L13.72 8.11L17.30 8.11C17.00 9.32 16.43 10.32 15.60 11.12C14.77 11.91 13.73 12.31 12.50 12.31C11.45 12.31 10.59 11.96 9.93 11.27C9.26 10.58 8.93 9.65 8.93 8.47C8.93 7.04 9.45 5.79 10.49 4.71C11.52 3.63 12.74 3.09 14.15 3.09C14.91 3.09 15.59 3.26 16.19 3.60C16.79 3.95 17.23 4.41 17.50 5.00L17.89 4.75C17.57 4.11 17.08 3.61 16.44 3.24C15.79 2.87 15.03 2.69 14.15 2.69C12.65 2.69 11.34 3.26 10.21 4.42C9.08 5.57 8.51 6.92 8.51 8.47C8.51 9.80 8.88 10.85 9.62 11.59C10.36 12.34 11.31 12.71 12.49 12.71C13.24 12.71 13.94 12.57 14.57 12.29C15.21 12.00 15.74 11.62 16.18 11.13C16.61 10.64 16.97 10.11 17.26 9.51C17.54 8.92 17.74 8.29 17.86 7.63Z"></path></g><!----><g data-v-423bf9ae="" id="46c8cd07-d782-460d-8857-a6a82d44f3f1" transform="matrix(1.0868111504448785,0,0,1.0868111504448785,-13.255261890115804,-0.23894260335429607)" stroke="none" fill="white"><g clip-rule="evenodd"><path d="M12.983 10.59l17.018 88.223-5.872-59.049 29.021-1.892-.054-9.883L64.549 1 53.622 18.977z"></path><path d="M59.389 54.548l5.16-53.541-8.74 39.716-19.612 1.045 1.57 20.462-7.766 36.583 12.057-39.899z"></path><path d="M62.8 67.182l.549-10.453-15.979 3.755-.032 11.797-17.337 26.532 21.68-27.616zM65.711 62.394l14.841-4.731 1.509-12.532-15.899 2.095zM72.07 44.502l10.988-1.417 1.581-10.278-8.079-.373L64.549 1l8.43 30.967z"></path><path d="M87.413 31.294l1.256-9.506-9.544-2.694L64.549 1l14.483 22.437-.422 7z"></path></g></g><!----></svg>